<svg xmlns="http://www.w3.org/2000/svg" viewBox="0 0 497.98 445.66"><defs><style>.cls-1,.cls-2{fill:#236734;}.cls-2{font-size:75px;font-family:Didot, Didot;}</style></defs><title>logo</title><g id="Layer_3_copy" data-name="Layer 3 copy"><path class="cls-1" d="M379,279c0-7-3.33-112.33-26.67-44.33-19.7,57.43,26.95,50.44,26.78,84.83,1.09-1.42,2.16-2.85,3.21-4.31C381.18,304.76,379,284.17,379,279Z" transform="translate(-1.6 -33)"/><path class="cls-1" d="M416,211A177.44,177.44,0,0,0,364.62,85.91C428,154.69,400.43,267.3,387.94,307A177.14,177.14,0,0,0,416,211Z" transform="translate(-1.6 -33)"/><path class="cls-1" d="M225,385c-1-5,25.5-58.5,37.5-72.5S270,267,265,264s-27,8-31,8-15-31-19-34-1.2-1.32-10,0c-6.67,1,2.67-20.67,4.33-31.33,4-6-3.33-37.67-3.33-37.67s-6,.33-24,1c-8.79-11.83,9-34.61,20.35-47.7.33-.39.67-.76,1-1.14-2.5-.3-5.27-.69-8.35-1.16-29.33-8.33-49-14-49-14-4.61-6.46,90.33-98,182-48.59a178,178,0,1,0-96.32,331.47C227.56,387.23,225.15,385.77,225,385Z" transform="translate(-1.6 -33)"/></g><g id="Layer_5" data-name="Layer 5"><path class="cls-1" d="M439.89,453.79s17-17.08,51.83-19.34c0,0-32.68-3.63-50.77-13.3-6.29,9.12-11.09,13.08-14.27,14.79L13,436.68l0,2.71,412.13-.73C437,445.06,439.89,453.79,439.89,453.79Z" transform="translate(-1.6 -33)"/><text class="cls-2" transform="translate(135.85 423.24)">athena</text></g></svg>